<svg width="26" height="26" viewBox="0 0 26 26" fill="none" xmlns="http://www.w3.org/2000/svg">
<path fill-rule="evenodd" clip-rule="evenodd" d="M24.5994 1.40064C24.8415 1.64275 24.945 1.97094 24.91 2.28669C24.9002 2.3752 24.8795 2.46274 24.8479 2.54713L17.2725 24.1912C17.1258 24.6105 16.738 24.8977 16.2941 24.9158C15.8503 24.9339 15.4404 24.6792 15.26 24.2733L11.0959 14.9041L1.72667 10.74C1.32076 10.5596 1.06611 10.1497 1.08422 9.70585C1.10233 9.26203 1.38952 8.87423 1.80877 8.7275L23.4528 1.15208C23.5377 1.12029 23.6258 1.09953 23.7149 1.08979C23.7804 1.0826 23.846 1.08143 23.911 1.08611C24.1618 1.10404 24.4076 1.20888 24.5994 1.40064ZM19.7105 4.75744L5.10365 9.86983L11.6767 12.7912L19.7105 4.75744ZM13.2088 14.3233L21.2426 6.2895L16.1302 20.8963L13.2088 14.3233Z" fill="#FF79C6"/>
</svg>
